<?xml version="1.0" ?><svg xmlns="http://www.w3.org/2000/svg" width="100" height="100" viewBox="0 0 100 100"><g fill="#64FFDA"><path d="M30,93.5H20c-5.5,0-10-4.5-10-10V30c0-5.5,4.5-10,10-10h10c5.5,0,10,4.5,10,10v53.5C40,89,35.5,93.5,30,93.5z"/><path d="M80,93.5H70c-5.5,0-10-4.5-10-10V30c0-5.5,4.5-10,10-10h10c5.5,0,10,4.5,10,10v53.5C90,89,85.5,93.5,80,93.5z"/><rect height="13.5" width="60" x="20" y="10"/><path d="M50,93.5L50,93.5c-2.8,0-5-2.2-5-5v-25c0-2.8,2.2-5,5-5h0c2.8,0,5,2.2,5,5v25C55,91.3,52.8,93.5,50,93.5z"/></g></svg>
